<svg xmlns="http://www.w3.org/2000/svg" width="60" height="60" viewBox="0 0 60 60">
    <path fill="#2D354C" fill-rule="evenodd" d="M42.912 4.615c7.726 0 14.011 6.286 14.011 14.01v22.749c0 7.725-6.285 14.01-14.01 14.01H20.163c-7.725 0-14.01-6.285-14.01-14.01V18.626c0-7.725 6.285-14.01 14.01-14.01zm0 4.505H20.164c-5.241 0-9.505 4.264-9.505 9.506v22.748c0 5.242 4.264 9.506 9.505 9.506h22.749c5.242 0 9.506-4.264 9.506-9.506V18.626c0-5.242-4.265-9.506-9.507-9.506zM31.54 16.919c7.213 0 13.082 5.868 13.082 13.081 0 7.214-5.869 13.082-13.082 13.082-7.214 0-13.082-5.868-13.082-13.082 0-7.213 5.868-13.081 13.082-13.081zm0 4.504c-4.73 0-8.578 3.848-8.578 8.577 0 4.73 3.849 8.577 8.578 8.577 4.73 0 8.577-3.847 8.577-8.577s-3.847-8.577-8.577-8.577zm13.63-8.324c.871 0 1.724.351 2.337.967.615.613.967 1.465.967 2.336 0 .868-.352 1.721-.967 2.337a3.336 3.336 0 0 1-2.337.967c-.868 0-1.72-.355-2.333-.967a3.33 3.33 0 0 1-.97-2.337c0-.87.354-1.723.97-2.336a3.316 3.316 0 0 1 2.333-.967z"/>
</svg>
