<svg xmlns="http://www.w3.org/2000/svg" width="60" height="60" viewBox="0 0 60 60">
    <path fill="#2D354C" fill-rule="evenodd" d="M50.792 4.615H9.208a4.593 4.593 0 0 0-4.593 4.593v41.584a4.593 4.593 0 0 0 4.593 4.593h41.584a4.593 4.593 0 0 0 4.593-4.593V9.208a4.593 4.593 0 0 0-4.593-4.593zM20.326 48.453c0 .738-.599 1.336-1.337 1.336H13.3a1.336 1.336 0 0 1-1.337-1.336V24.604c0-.738.599-1.336 1.337-1.336h5.69c.737 0 1.336.598 1.336 1.337v23.848zM16.145 21.02a5.405 5.405 0 1 1 0-10.81 5.405 5.405 0 0 1 0 10.81zm33.912 27.54c0 .68-.55 1.23-1.23 1.23h-6.104c-.679 0-1.229-.55-1.229-1.23V37.375c0-1.668.49-7.312-4.36-7.312-3.763 0-4.527 3.863-4.68 5.596v12.903c0 .678-.55 1.228-1.228 1.228H25.32c-.678 0-1.229-.55-1.229-1.228V24.497c0-.679.55-1.229 1.23-1.229h5.904c.678 0 1.228.55 1.228 1.229v2.08c1.395-2.093 3.469-3.71 7.883-3.71 9.775 0 9.72 9.134 9.72 14.151v11.543z"/>
</svg>
