<svg xmlns="http://www.w3.org/2000/svg" width="60" height="60" viewBox="0 0 60 60">
    <path fill="#2D354C" fill-rule="evenodd" d="M49.359 11.538H10.64c-3.322 0-6.026 2.596-6.026 5.787v26.987c0 3.19 2.704 5.787 6.026 5.787H49.36c3.323 0 6.026-2.596 6.026-5.787V17.325c0-3.19-2.703-5.787-6.026-5.787zm0 33.452H10.64c-.488 0-.916-.317-.916-.678V20.894l17.51 14.784c.36.303.816.47 1.286.47h2.957c.47 0 .927-.167 1.286-.47l17.512-14.785v23.42c0 .36-.429.677-.917.677zM30 31.075L12.968 16.647h34.064L30 31.075z"/>
</svg>
