<svg xmlns="http://www.w3.org/2000/svg" width="60" height="60" viewBox="0 0 60 60">
    <path fill="#2D354C" fill-rule="evenodd" d="M10.636 17.915a1.966 1.966 0 0 0-.64-1.66l-4.74-5.71v-.853h14.718l11.377 24.951 10.002-24.95h14.032v.852l-4.053 3.886c-.35.267-.523.704-.45 1.138V44.12c-.073.434.1.871.45 1.138l3.958 3.886v.853H35.38v-.853l4.1-3.981c.404-.403.404-.521.404-1.137v-23.08l-11.4 28.956h-1.542L13.67 20.948v19.406c-.11.816.16 1.637.735 2.227l5.333 6.469v.853H4.615v-.853l5.333-6.469c.57-.59.826-1.418.688-2.227v-22.44z"/>
</svg>
