<svg xmlns="http://www.w3.org/2000/svg" width="60" height="60" viewBox="0 0 60 60">
    <path fill="#2D354C" fill-rule="evenodd" d="M56.153 14.258a21.699 21.699 0 0 1-5.997 1.644 10.35 10.35 0 0 0 4.579-5.753 20.798 20.798 0 0 1-6.6 2.52 10.43 10.43 0 0 0-7.603-3.294c-5.762 0-10.4 4.677-10.4 10.41 0 .826.069 1.62.24 2.374-8.653-.422-16.31-4.569-21.453-10.886a10.479 10.479 0 0 0-1.425 5.26c0 3.605 1.856 6.8 4.623 8.65-1.672-.031-3.312-.517-4.702-1.282v.115c0 5.057 3.608 9.259 8.339 10.226-.847.232-1.77.343-2.73.343-.665 0-1.338-.038-1.97-.178 1.349 4.122 5.176 7.152 9.726 7.25a20.913 20.913 0 0 1-12.905 4.44c-.854 0-1.672-.038-2.49-.143 4.61 2.973 10.074 4.671 15.966 4.671 19.153 0 29.624-15.865 29.624-29.617 0-.46-.016-.905-.038-1.346 2.066-1.466 3.801-3.297 5.216-5.404z"/>
</svg>
